<svg width="20" height="20" viewBox="0 0 20 20" fill="none" xmlns="http://www.w3.org/2000/svg">
<path d="M12 3C12 2.46957 11.7893 1.96086 11.4142 1.58579C11.0392 1.21071 10.5304 1 10 1C9.46958 1 8.96087 1.21071 8.5858 1.58579C8.21073 1.96086 8.00001 2.46957 8.00001 3M17.26 7.696L18.645 16.696C18.6888 16.9808 18.6705 17.2718 18.5914 17.5489C18.5123 17.8261 18.3743 18.0828 18.1867 18.3016C17.9992 18.5204 17.7665 18.6961 17.5047 18.8167C17.243 18.9372 16.9582 18.9997 16.67 19H3.33001C3.04164 19 2.75668 18.9377 2.49465 18.8173C2.23263 18.6969 1.99974 18.5212 1.81196 18.3024C1.62417 18.0836 1.48593 17.8267 1.40672 17.5494C1.3275 17.2721 1.30918 16.981 1.35301 16.696L2.73801 7.696C2.81066 7.22359 3.05009 6.79282 3.41294 6.4817C3.77578 6.17059 4.23805 5.9997 4.71601 6H15.284C15.7618 5.99994 16.2238 6.17094 16.5865 6.48203C16.9491 6.79312 17.1874 7.22376 17.26 7.696Z" stroke="#73655E" stroke-linecap="round" stroke-linejoin="round"/>
</svg>
