<svg width="12" height="12" viewBox="0 0 12 12" fill="none" xmlns="http://www.w3.org/2000/svg">
<path d="M6.63104 5.99737L11.3695 1.25709C11.4531 1.17313 11.5 1.05948 11.4999 0.94104C11.4998 0.822597 11.4528 0.709013 11.3691 0.625165C11.2015 0.458559 10.9064 0.457717 10.7372 0.626006L6 5.36629L1.26113 0.624744C1.09274 0.458559 0.797637 0.4594 0.63009 0.625586C0.588503 0.666982 0.555582 0.716242 0.533249 0.77049C0.510915 0.824738 0.499616 0.882889 0.50001 0.941548C0.50001 1.06103 0.546317 1.17295 0.63009 1.25583L5.36855 5.99695L0.630511 10.7385C0.5469 10.8226 0.500077 10.9364 0.500314 11.0549C0.50055 11.1735 0.547828 11.2871 0.631774 11.3708C0.713022 11.4512 0.827947 11.4975 0.946661 11.4975H0.949187C1.06832 11.4971 1.18325 11.4504 1.26281 11.3692L6 6.62887L10.7389 11.3704C10.8227 11.4537 10.9346 11.5 11.0533 11.5C11.1121 11.5002 11.1702 11.4887 11.2245 11.4664C11.2787 11.444 11.328 11.4111 11.3695 11.3696C11.4111 11.3281 11.444 11.2789 11.4663 11.2246C11.4887 11.1704 11.5002 11.1123 11.5 11.0536C11.5 10.9345 11.4537 10.8222 11.3695 10.7393L6.63104 5.99737Z" fill="#33251E"/>
</svg>
