<?xml version="1.0" standalone="no"?>
<!DOCTYPE svg PUBLIC "-//W3C//DTD SVG 20010904//EN"
 "http://www.w3.org/TR/2001/REC-SVG-20010904/DTD/svg10.dtd">
<svg version="1.0" xmlns="http://www.w3.org/2000/svg"
 width="360.000000pt" height="13.000000pt" viewBox="0 0 360.000000 13.000000"
 preserveAspectRatio="xMidYMid meet">

<g transform="translate(0.000000,13.000000) scale(0.100000,-0.100000)"
fill="#000000" stroke="none">
<path d="M235 65 c0 -55 3 -65 18 -65 19 0 24 16 6 22 -6 2 -9 20 -7 43 l4 40
13 -32 c16 -42 27 -42 45 -1 l14 33 1 -42 c1 -24 -3 -43 -9 -43 -5 0 -10 -4
-10 -10 0 -5 8 -10 18 -10 14 0 17 10 17 65 0 75 -15 85 -38 28 l-15 -38 -15
38 c-25 59 -42 48 -42 -28z"/>
<path d="M602 117 c15 -10 15 -14 1 -51 -9 -23 -21 -47 -26 -53 -7 -10 -2 -13
18 -13 22 0 25 3 16 13 -14 18 -4 27 31 27 30 0 35 -9 16 -28 -9 -9 -6 -12 15
-12 23 0 26 3 17 17 -5 10 -19 39 -30 66 -17 40 -23 47 -47 46 -24 0 -26 -2
-11 -12z m48 -44 c0 -7 -7 -13 -15 -13 -16 0 -19 9 -9 35 5 13 8 14 15 3 5 -7
9 -19 9 -25z"/>
<path d="M940 120 c0 -5 7 -10 15 -10 11 0 15 -12 15 -45 0 -33 -4 -45 -15
-45 -8 0 -15 -4 -15 -10 0 -5 18 -10 40 -10 22 0 40 5 40 10 0 6 -7 10 -15 10
-11 0 -15 12 -15 45 0 33 4 45 15 45 8 0 15 5 15 10 0 6 -18 10 -40 10 -22 0
-40 -4 -40 -10z"/>
<path d="M1289 114 c-16 -19 -2 -47 27 -53 32 -6 46 -22 33 -37 -15 -18 -34
-18 -53 2 -14 14 -16 14 -16 0 0 -19 48 -32 69 -19 28 18 19 47 -22 66 -32 15
-37 20 -27 32 16 19 25 19 44 0 14 -15 33 -4 22 13 -9 15 -63 12 -77 -4z"/>
<path d="M1885 65 c0 -64 0 -65 28 -65 15 0 27 5 27 10 0 6 -9 10 -19 10 -14
0 -18 5 -14 20 4 15 11 19 24 15 20 -7 28 18 9 30 -5 3 -10 1 -10 -5 0 -18
-23 -6 -26 13 -2 13 5 17 31 17 18 0 36 -6 38 -12 3 -7 6 -3 6 10 1 20 -4 22
-46 22 l-48 0 0 -65z"/>
<path d="M2218 118 c7 -7 12 -30 12 -53 0 -23 -5 -46 -12 -53 -9 -9 -6 -12 15
-12 15 0 27 5 27 10 0 6 -4 10 -10 10 -5 0 -10 9 -10 20 0 30 25 24 54 -12 14
-18 28 -29 31 -26 4 4 -2 17 -14 29 -23 25 -27 39 -11 39 14 0 13 33 -2 48 -7
7 -30 12 -52 12 -31 0 -37 -3 -28 -12z m77 -28 c0 -9 -11 -16 -27 -18 -23 -3
-28 1 -28 18 0 17 5 21 28 18 16 -2 27 -9 27 -18z"/>
<path d="M2570 120 c0 -5 7 -10 15 -10 11 0 15 -12 15 -45 0 -33 -4 -45 -15
-45 -8 0 -15 -4 -15 -10 0 -5 18 -10 40 -10 22 0 40 5 40 10 0 6 -7 10 -15 10
-11 0 -15 12 -15 45 0 33 4 45 15 45 8 0 15 5 15 10 0 6 -18 10 -40 10 -22 0
-40 -4 -40 -10z"/>
<path d="M2915 65 l0 -65 31 0 c38 0 64 27 64 67 0 37 -27 63 -66 63 l-29 0 0
-65z m73 33 c29 -29 7 -78 -35 -78 -21 0 -23 5 -23 45 0 40 2 45 23 45 13 0
28 -5 35 -12z"/>
<path d="M3260 121 c0 -5 5 -11 11 -13 8 -3 5 -20 -10 -52 -26 -59 -25 -56 -1
-56 11 0 20 5 20 10 0 6 -5 10 -11 10 -5 0 -7 5 -4 10 3 6 20 10 36 10 26 0
29 -3 24 -20 -5 -16 -2 -20 14 -20 22 0 27 10 12 26 -4 5 -16 30 -26 57 -14
38 -22 47 -41 47 -13 0 -24 -4 -24 -9z m53 -41 c4 -15 0 -20 -15 -20 -14 0
-18 5 -14 16 3 9 6 20 6 25 0 17 17 1 23 -21z"/>
<path d="M42 60 c0 -45 1 -50 8 -27 5 15 5 39 0 55 -7 22 -8 17 -8 -28z"/>
<path d="M3548 88 c-2 -13 -1 -36 3 -53 5 -24 7 -20 8 23 1 54 -4 68 -11 30z"/>
<path d="M1610 93 c0 -3 7 -15 17 -25 15 -17 15 -19 0 -36 -21 -23 -21 -32 -1
-32 8 0 13 4 10 8 -2 4 0 14 5 22 8 13 10 13 18 0 5 -8 7 -18 5 -22 -3 -4 2
-8 10 -8 20 0 20 9 -1 32 -15 17 -15 19 2 38 10 11 15 23 12 27 -4 4 -14 -2
-22 -13 -14 -18 -16 -18 -29 -1 -13 17 -26 22 -26 10z"/>
</g>
</svg>
