<svg width="22" height="22" viewBox="0 0 22 22" fill="none" xmlns="http://www.w3.org/2000/svg">
<path d="M16.122 16.122L21 21M9.84999 1C12.294 1 14.507 1.99 16.108 3.592C17.5558 5.03977 18.4568 6.94476 18.6576 8.98239C18.8583 11.02 18.3463 13.0642 17.2088 14.7667C16.0713 16.4691 14.3787 17.7245 12.4194 18.3189C10.4601 18.9133 8.35527 18.8099 6.46361 18.0264C4.57196 17.2429 3.0105 15.8277 2.04528 14.022C1.08006 12.2163 0.770808 10.1318 1.17021 8.12364C1.56961 6.11548 2.65296 4.30794 4.23566 3.00899C5.81836 1.71003 7.8025 1.00005 9.84999 1Z" stroke="#73655E"/>
</svg>
